# xmcd CD database file
#
# Track frame offsets:
#	150
#	18413
#	38977
#	57158
#
# Disc length: 1034 seconds
#
# Revision: 0
# Processed by: cddbd v1.5PL3 Copyright (c) Steve Scherf et al.
# Submitted via: CDex 1.50
#
DISCID=2b040804
DTITLE=サザーランド - Silent movie
DYEAR=2004
DGENRE=JPop
TTITLE0=Silent movie
TTITLE1=106
TTITLE2=Silent movie (inst.)
TTITLE3=106 (inst.)
EXTD=YEAR: 2004
EXTT0=
EXTT1=
EXTT2=
EXTT3=
PLAYORDER=
